# xmcd
#
# Track frame offsets:
#	200
#	10542
#	23665
#	33945
#	45085
#	58205
#	69312
#	81495
#	96527
#	106665
#	121930
#	138150
#	147785
#	158025
#	171530
#	184765
#	194825
#	206565
#	220297
#	232337
#	245385
#	255485
#	265542
#	279230
#
# Disc length: 3907 seconds
#
# Revision: 2
# Processed by: cddbd v1.5.2PL0 Copyright (c) Steve Scherf et al.
# Submitted via: EasyCDDAExtractor 11.1.0.1
#
DISCID=500f4118
DTITLE=Osborne Brothers - Once More, Volumes 1 and 2  (1991)
DYEAR=1991
DGENRE=Bluegrass
TTITLE0=The Cuckoo Bird
TTITLE1=Beneath Still Waters
TTITLE2=Arkansas
TTITLE3=Pain In My Heart
TTITLE4=Blue Moon Of Kentucky
TTITLE5=Once More
TTITLE6=Listening To The Rain
TTITLE7=High On A Hilltop
TTITLE8=Each Season Changes You
TTITLE9=Kentucky
TTITLE10=Nobody's Darling But Mine
TTITLE11=Bluegrass Express
TTITLE12=One Tear
TTITLE13=Windy City
TTITLE14=Two Lonely Hearts
TTITLE15=I'll Be Alright Tomorrow
TTITLE16=Making Plans
TTITLE17=Lonesome Feeling
TTITLE18=Big Spike Hammer
TTITLE19=My Favorite Memory
TTITLE20=Unfaithful One
TTITLE21=Me and My Old Banjo
TTITLE22=One Kiss Away From Loneliness
TTITLE23=Fastest Grass Alive
EXTD=YEAR: 1991
EXTT0=
EXTT1=
EXTT2=
EXTT3=
EXTT4=
EXTT5=
EXTT6=
EXTT7=
EXTT8=
EXTT9=
EXTT10=
EXTT11=
EXTT12=
EXTT13=
EXTT14=
EXTT15=
EXTT16=
EXTT17=
EXTT18=
EXTT19=
EXTT20=
EXTT21=
EXTT22=
EXTT23=
PLAYORDER=
